<svg width="716" height="315" viewBox="0 0 716 315" fill="none" xmlns="http://www.w3.org/2000/svg">
<path d="M556 172C556 200.167 533.167 223 505 223C476.833 223 454 200.167 454 172C454 143.834 476.833 121 505 121C533.167 121 556 143.834 556 172ZM477.341 172C477.341 187.276 489.725 208 505 208C520.275 208 533 187.276 533 172C533 156.725 520.275 134 505 134C489.725 134 547.856 199.659 477.341 172Z" fill="white"/>
<path d="M547.954 179.741C547.954 179.741 532.435 240.383 527.5 266.5C522.565 292.617 473.1 311.304 442.5 305.5C411.9 299.696 618.223 171.117 673.5 145" stroke="white" stroke-width="15" stroke-linecap="round"/>
<path d="M325 172C325 200.167 302.167 223 274 223C245.833 223 223 200.167 223 172C223 143.834 245.833 121 274 121C302.167 121 325 143.834 325 172ZM262.341 172C262.341 178.439 267.561 183.659 274 183.659C280.439 183.659 285.659 178.439 285.659 172C285.659 165.561 280.439 160.342 274 160.342C267.561 160.342 262.341 165.561 262.341 172Z" fill="white"/>
<path d="M439 172C439 200.167 416.167 223 388 223C359.833 223 337 200.167 337 172C337 143.834 359.833 121 388 121C416.167 121 439 143.834 439 172ZM349.328 172C349.328 193.358 366.642 210.672 388 210.672C409.358 210.672 426.672 193.358 426.672 172C426.672 150.642 409.358 133.329 388 133.329C366.642 133.329 349.328 150.642 349.328 172Z" fill="white"/>
<path d="M404 172C404 180.837 396.837 188 388 188C379.163 188 372 180.837 372 172C372 163.163 379.163 156 388 156C396.837 156 404 163.163 404 172ZM375.868 172C375.868 178.7 381.3 184.132 388 184.132C394.7 184.132 400.132 178.7 400.132 172C400.132 165.3 394.7 159.868 388 159.868C381.3 159.868 375.868 165.3 375.868 172Z" fill="white"/>
<path d="M203.373 117.5C207.585 117.5 211.029 120.92 210.725 125.121C209.076 147.894 200.072 169.596 184.964 186.896C168.177 206.118 144.992 218.603 119.705 222.039C94.4179 225.476 68.7422 219.629 47.4354 205.584C26.1286 191.539 10.635 170.246 3.82534 145.652C-2.98433 121.057 -0.648458 94.8284 10.4002 71.8244C21.4488 48.8205 40.4611 30.601 63.9146 20.5418C87.3681 10.4827 113.673 9.26561 137.955 17.1162C159.81 24.1822 178.693 38.1627 191.82 56.8441C194.242 60.2908 193.047 64.9948 189.435 67.1614C185.822 69.3281 181.163 68.1331 178.699 64.7162C167.501 49.1863 151.605 37.5618 133.262 31.6314C112.491 24.916 89.9899 25.957 69.9277 34.5617C49.8656 43.1664 33.6023 58.7513 24.1513 78.429C14.7003 98.1066 12.7022 120.543 18.5272 141.581C24.3522 162.619 37.6055 180.833 55.8314 192.847C74.0573 204.862 96.0203 209.863 117.651 206.923C139.282 203.984 159.114 193.304 173.473 176.862C186.154 162.341 193.807 144.197 195.423 125.119C195.779 120.921 199.16 117.5 203.373 117.5Z" fill="white"/>
<path d="M103 129C103 122.373 108.373 117 115 117H199C205.627 117 211 122.373 211 129C211 135.628 205.627 141 199 141H115C108.373 141 103 135.628 103 129Z" fill="white"/>
<path d="M678.617 149.709C683.48 146.522 684.903 139.898 680.799 135.78C674.612 129.574 666.91 125.006 658.39 122.591C646.479 119.213 633.778 120.272 622.64 125.572C611.503 130.871 602.684 140.051 597.818 151.41C592.952 162.77 592.368 175.54 596.175 187.354C599.982 199.167 607.922 209.224 618.523 215.66C629.124 222.097 641.668 224.476 653.83 222.359C665.993 220.241 676.95 213.769 684.67 204.142C690.197 197.252 693.797 189.079 695.202 180.448C696.134 174.724 691.142 170.175 685.347 170.389C679.501 170.604 675.125 175.67 673.341 181.241C672.234 184.698 670.501 187.949 668.197 190.82C663.665 196.472 657.233 200.271 650.093 201.514C642.953 202.757 635.589 201.36 629.366 197.582C623.142 193.803 618.481 187.9 616.246 180.965C614.012 174.029 614.354 166.533 617.211 159.864C620.068 153.195 625.245 147.806 631.783 144.695C638.321 141.585 645.777 140.963 652.77 142.945C656.359 143.963 659.702 145.632 662.646 147.84C667.297 151.328 673.755 152.895 678.617 149.709Z" fill="white"/>
<path d="M583.593 159C581.096 169.783 565.302 168.296 564.861 157.237L559.458 21.7023C559.082 12.2701 569.241 6.1169 577.426 10.819L598.363 22.8466C602.71 25.3437 605.046 30.2798 604.222 35.2246L583.593 159Z" fill="white"/>
</svg>
