<svg width="158" height="158" viewBox="0 0 158 158" fill="none" xmlns="http://www.w3.org/2000/svg">
<path d="M110 55C110 85.3757 85.3757 110 55 110C24.6243 110 0 85.3757 0 55C0 24.6243 24.6243 0 55 0C85.3757 0 110 24.6243 110 55ZM11.434 55C11.434 79.0609 30.9391 98.566 55 98.566C79.0609 98.566 98.566 79.0609 98.566 55C98.566 30.9391 79.0609 11.434 55 11.434C30.9391 11.434 11.434 30.9391 11.434 55Z" fill="white"/>
<path d="M69.596 26.1709C70.5631 24.9966 70.4021 23.2471 69.1338 22.407C66.7165 20.8058 64.0475 19.6087 61.231 18.8691C57.5244 17.8957 53.6508 17.7378 49.8773 18.4063C46.1037 19.0748 42.5201 20.5538 39.3735 22.7414C36.9825 24.4035 34.8872 26.4447 33.167 28.7788C32.2645 30.0035 32.7143 31.7018 34.026 32.4724V32.4724C35.3377 33.243 37.0123 32.7904 37.9479 31.5908C39.2421 29.9314 40.7817 28.4719 42.5181 27.2648C45.0106 25.532 47.8492 24.3605 50.8383 23.8309C53.8273 23.3014 56.8957 23.4265 59.8317 24.1975C61.8772 24.7347 63.8245 25.5765 65.6099 26.6902C66.9007 27.4954 68.6288 27.3452 69.596 26.1709V26.1709Z" fill="white"/>
<line x1="95.0149" y1="95.6245" x2="148.625" y2="145.985" stroke="white" stroke-width="17" stroke-linecap="round"/>
</svg>
